# xmcd
#
# Track frame offsets:
#	182
#	12262
#	24837
#	37145
#	51585
#	64260
#	77622
#	89707
#	102070
#	115075
#	127012
#	139570
#	152110
#	164670
#	177140
#
# Disc length: 2520 seconds
#
# Revision: 2
# Processed by: cddbd v1.5.2PL0 Copyright (c) Steve Scherf et al.
# Submitted via: EasyCDDAExtractor 16.0.0.1
#
DISCID=c809d60f
DTITLE=Various Artist - Rhytm And Blues
DYEAR=1990
DGENRE=Rhythm - Blues;
TTITLE0=Ray Charles - Mess Around
TTITLE1=Joe Turner - Flip Flop And Fly
TTITLE2=Johnny Otis - High Heel Sneakers
TTITLE3=Dinah Washington - I Don't Hurt Anymore
TTITLE4=Wynonie Harris - Good Rockin' Tonight
TTITLE5=La Verne Baker - Play It Fair
TTITLE6=Stick McGhee - One Monkey Don't Stop No Show
TTITLE7=Louis Jordan - Caldonia
TTITLE8=Ruth Brown - Teardrops From My Eyes
TTITLE9=Earl Bostic - Flamingo
TTITLE10=Clyde Mc Phatter and The Drifters - Watcha Gonna Do
TTITLE11=Tommy Ridgley - Jam Up
TTITLE12=The Robins - Smokey Joe's Cafe
TTITLE13=Tiny Grimes - Midnight Special
TTITLE14=Willie Jackson - Gator's Groove
EXTD=
EXTT0=
EXTT1=
EXTT2=
EXTT3=
EXTT4=
EXTT5=
EXTT6=
EXTT7=
EXTT8=
EXTT9=
EXTT10=
EXTT11=
EXTT12=
EXTT13=
EXTT14=
PLAYORDER=
